<svg width="44" height="44" viewBox="0 0 44 44" fill="none" xmlns="http://www.w3.org/2000/svg">
<rect width="44" height="44" rx="22" fill="white"/>
<path d="M37.7137 22.0004C37.7137 13.3217 30.6782 6.28613 21.9994 6.28613C13.3207 6.28613 6.28516 13.3217 6.28516 22.0004C6.28516 29.3701 11.3587 35.5538 18.2032 37.252V26.8025H14.9628V22.0004H18.2032V19.9312C18.2032 14.5826 20.6237 12.1035 25.8748 12.1035C26.8704 12.1035 28.5882 12.2987 29.2909 12.4939V16.847C28.92 16.808 28.2759 16.7884 27.4755 16.7884C24.8988 16.7884 23.9032 17.7645 23.9032 20.3021V22.0004H29.036L28.1543 26.8025H23.9032V37.5996C31.684 36.6598 37.7137 30.0347 37.7137 22.0004Z" fill="#0866FF"/>
<path d="M28.1543 26.8025L29.0362 22.0005H23.9033V20.3022C23.9033 17.7645 24.8988 16.7885 27.4755 16.7885C28.2759 16.7885 28.9201 16.808 29.291 16.847V12.494C28.5882 12.2988 26.8704 12.1035 25.8749 12.1035C20.6239 12.1035 18.2033 14.5827 18.2033 19.9313V22.0005H14.9629V26.8025H18.2033V37.252C19.4191 37.5536 20.6904 37.7148 21.9995 37.7148C22.644 37.7148 23.2791 37.6751 23.9033 37.5997V26.8025H28.1543Z" fill="white"/>
</svg>
