<svg width="24" height="32" viewBox="0 0 24 32" fill="none" xmlns="http://www.w3.org/2000/svg">
<g clip-path="url(#clip0_3025_2263)">
<path d="M15.6887 17.2907C15.5634 18.3679 14.9103 19.2402 13.8989 19.6714C13.3321 19.9104 12.5752 20.0413 11.9681 20.0024C11.034 19.9634 10.1584 19.732 9.34116 19.3211C9.05845 19.1655 8.62278 18.8738 8.29042 18.6013C8.20846 18.5235 8.19473 18.4846 8.25417 18.404C8.28029 18.3568 8.33864 18.2704 8.45827 18.0954C8.64069 17.8375 8.6602 17.8034 8.67962 17.7704C8.73797 17.6866 8.82688 17.679 8.91981 17.7452C8.93253 17.7581 8.93253 17.7581 8.93957 17.7644C8.95196 17.778 8.95196 17.778 8.98528 17.8033C9.01968 17.8297 9.04463 17.8423 9.05074 17.8572C9.92652 18.5427 10.946 18.9319 11.9751 18.9709C13.4036 18.9516 14.4301 18.3093 14.6192 17.3168C14.814 16.2366 13.9626 15.2936 12.2978 14.7677C11.7733 14.6121 10.4534 14.0849 10.2097 13.9383C9.06874 13.2699 8.5332 12.3927 8.61106 11.3049C8.72784 9.80149 10.1245 8.68252 11.8897 8.67272C12.6732 8.67272 13.463 8.83606 14.2123 9.15126C14.4825 9.2662 14.9648 9.52748 15.1252 9.65239C15.2215 9.72372 15.242 9.80149 15.1827 9.88864C15.1629 9.94181 15.1048 10.021 15.0045 10.1908C14.8583 10.4138 14.8528 10.4231 14.8263 10.4722C14.7742 10.554 14.6998 10.5606 14.6007 10.502C13.7998 9.95729 12.8965 9.68471 11.9095 9.66529C10.6837 9.68471 9.76193 10.4154 9.70257 11.4166C9.69035 12.316 10.362 12.9711 11.8166 13.4645C14.7751 14.4176 15.9036 15.5312 15.6887 17.2907ZM12.0406 1.77059C13.9627 1.77059 15.533 3.59439 15.6108 5.88073H8.47493C8.54358 3.59439 10.1185 1.77059 12.0406 1.77059ZM22.0031 6.31389C22.0031 6.07529 21.8184 5.88073 21.5827 5.88073H21.5673H16.9544C16.8377 2.8642 14.6799 0.453125 12.0406 0.453125C9.3996 0.453125 7.24746 2.8642 7.13235 5.88073H2.50006C2.26775 5.886 2.0834 6.07629 2.0834 6.31389C2.0834 6.32762 2.0834 6.33364 2.0834 6.34737H2.07812L2.73606 20.8974C2.73606 20.9367 2.74377 20.9764 2.74377 21.0237C2.74377 21.0329 2.74502 21.0358 2.74502 21.0531V21.0754L2.74988 21.0831C2.84892 22.0975 3.58178 22.9062 4.58339 22.9458V22.9535H19.2766C19.2843 22.9535 19.2889 22.9535 19.2965 22.9535C19.3079 22.9535 19.3079 22.9535 19.3162 22.9535H19.3467V22.9458C20.3625 22.9211 21.1943 22.0975 21.2736 21.0719L21.278 21.0531C21.278 21.0435 21.278 21.033 21.278 21.0237C21.278 20.9941 21.2857 20.9753 21.2857 20.9444L22.0031 6.33364C22.0031 6.32829 22.0031 6.32 22.0031 6.31389Z" fill="#EE4D2D"/>
<path d="M20.4171 27.8901C20.5446 27.4867 20.9061 27.2291 21.3313 27.2291C21.7482 27.2291 22.1389 27.5074 22.2665 27.8901L22.2872 27.9118H20.4134L20.4171 27.8901ZM22.6921 28.4645C22.6979 28.4645 22.6979 28.4645 22.7071 28.4645C22.713 28.4645 22.713 28.4645 22.713 28.4645C22.7981 28.4628 22.8722 28.3795 22.8722 28.2943C22.8722 28.2831 22.8718 28.2735 22.871 28.2727C22.8713 28.2727 22.8713 28.2727 22.8713 28.2629C22.8713 27.3799 22.1814 26.6788 21.3312 26.6788C20.4831 26.6788 19.8007 27.3799 19.8007 28.2629C19.8007 28.3308 19.8007 28.398 19.813 28.4643L19.814 28.4645L19.8199 28.4838C19.8617 28.7947 19.992 29.0805 20.2046 29.3148C20.4386 29.5771 20.7573 29.7607 21.1186 29.825H21.1399C21.1611 29.825 21.1643 29.825 21.1824 29.8294C21.6501 29.8883 22.0717 29.825 22.4155 29.6464C22.5005 29.6012 22.5855 29.5482 22.6491 29.5057C22.6706 29.4848 22.6917 29.4651 22.7131 29.4598C22.7131 29.4423 22.724 29.4423 22.7327 29.4423C22.8037 29.3572 22.8159 29.3303 22.7603 29.2506C22.7131 29.1655 22.6704 29.1022 22.628 29.038C22.6066 29.0172 22.6033 28.9955 22.5855 28.9868C22.5855 28.9746 22.5855 28.9746 22.5852 28.9746C22.5832 28.9746 22.5832 28.9746 22.5807 28.9746H22.5797C22.5353 28.9104 22.5005 28.9104 22.4579 28.9529C22.4558 28.9529 22.4365 28.9746 22.4362 28.9746C22.0964 29.2722 21.6287 29.3729 21.1698 29.2722C21.083 29.2506 21.01 29.2244 20.9273 29.1872C20.646 29.038 20.4386 28.7829 20.3746 28.4853V28.4645L22.6921 28.4645ZM16.7613 27.8901C16.8888 27.4867 17.2496 27.2291 17.6776 27.2291C18.0967 27.2291 18.4826 27.5074 18.6131 27.8901L18.6318 27.9118H16.7613V27.8901ZM19.0401 28.4645C19.0464 28.4645 19.0464 28.4645 19.0556 28.4645C19.057 28.4645 19.057 28.4645 19.057 28.4645C19.142 28.4628 19.2208 28.3795 19.2208 28.2943C19.2208 28.2831 19.2205 28.2735 19.2196 28.2727C19.2198 28.2727 19.2198 28.2727 19.2198 28.2629C19.2198 27.3799 18.5252 26.6788 17.6765 26.6788C16.8318 26.6788 16.1443 27.3799 16.1443 28.2629C16.1443 28.3308 16.1443 28.398 16.1616 28.4643L16.1628 28.4645L16.1662 28.4838C16.2087 28.7947 16.3362 29.0805 16.5488 29.3148C16.7819 29.5771 17.1015 29.7607 17.4621 29.825H17.4843C17.5047 29.825 17.5129 29.825 17.5264 29.8294C17.9941 29.8883 18.4192 29.825 18.7594 29.6464C18.8449 29.6012 18.9294 29.5482 18.993 29.5057C19.0144 29.4848 19.0355 29.4651 19.057 29.4598C19.057 29.4423 19.0725 29.4423 19.0781 29.4423C19.1522 29.3572 19.163 29.3303 19.1087 29.2506C19.057 29.1655 19.0144 29.1022 18.9719 29.038C18.9507 29.0172 18.9503 28.9955 18.9294 28.9868C18.9294 28.9746 18.9294 28.9746 18.9294 28.9746C18.9294 28.9746 18.9294 28.9746 18.9291 28.9746H18.9282C18.8838 28.9104 18.8443 28.9104 18.8018 28.9529L18.7802 28.9746C18.4401 29.2722 17.9725 29.3729 17.5184 29.2722C17.4315 29.2506 17.3563 29.2244 17.2715 29.1872C16.9942 29.038 16.7819 28.7829 16.7192 28.4853L16.7188 28.4645L19.0401 28.4645ZM13.976 29.3356C13.4026 29.3356 12.9349 28.8895 12.9183 28.3152V28.2622C12.9349 27.6993 13.4026 27.2438 13.976 27.2438C14.5506 27.2438 15.0243 27.7138 15.0243 28.2945C15.0244 28.868 14.5507 29.3356 13.976 29.3356ZM13.976 26.6848C13.5952 26.6848 13.2397 26.8124 12.9549 27.0468L12.9183 27.0813V26.7847C12.9183 26.6996 12.9069 26.6848 12.8238 26.6848H12.4597C12.3774 26.6848 12.3627 26.6997 12.3627 26.7847V31.4528C12.3627 31.5253 12.3774 31.5464 12.4597 31.5464H12.8238C12.9051 31.5464 12.9183 31.5253 12.9183 31.4528V29.5057L12.9549 29.5273C13.2399 29.7607 13.5952 29.8883 13.976 29.8883C14.8686 29.8883 15.5914 29.1737 15.5914 28.2945C15.5914 27.4017 14.8686 26.6848 13.976 26.6848ZM10.1876 29.2948C9.60253 29.2948 9.13497 28.835 9.13497 28.263C9.13497 27.6912 9.60262 27.2313 10.1876 27.2313C10.7717 27.2313 11.2399 27.6912 11.2399 28.263C11.24 28.8349 10.7717 29.2948 10.1876 29.2948ZM10.1876 26.6788C9.2947 26.6788 8.57188 27.3799 8.57188 28.265C8.57188 29.1447 9.2947 29.846 10.1876 29.846C11.0803 29.846 11.8036 29.1447 11.8036 28.265C11.8036 27.3799 11.0803 26.6788 10.1876 26.6788ZM6.58442 26.7088C6.26378 26.7088 5.94657 26.8112 5.68319 27.008L5.65163 27.0349V24.8665C5.65163 24.7867 5.62786 24.7656 5.55653 24.7656H5.17092C5.09633 24.7656 5.07515 24.7867 5.07515 24.8665V29.8036C5.07515 29.8883 5.09641 29.91 5.17092 29.91H5.55653C5.62786 29.91 5.65163 29.8846 5.65163 29.8036V28.1878C5.65975 27.6813 6.07416 27.2741 6.5845 27.2741C7.10422 27.2741 7.51955 27.6863 7.51955 28.1967V29.8036C7.51955 29.8883 7.53428 29.91 7.6154 29.91H7.99808C8.08305 29.91 8.09352 29.8883 8.09352 29.8036V28.1876C8.09343 27.3799 7.41323 26.7088 6.58442 26.7088ZM1.22722 29.0104L1.2263 29.0138C1.16912 29.0941 1.14367 29.1231 1.13228 29.1447C1.08959 29.208 1.09637 29.2411 1.16351 29.293C1.3132 29.4205 1.51462 29.5481 1.64765 29.6122C2.01961 29.8031 2.41861 29.8883 2.84515 29.9094C3.11967 29.9125 3.47003 29.8458 3.72528 29.7398C4.19285 29.5273 4.48988 29.123 4.54044 28.6286C4.62341 27.8201 4.09724 27.3166 2.74486 26.9103L2.74394 26.9101C2.10994 26.6996 1.81291 26.4266 1.81283 26.0561C1.83342 25.637 2.22045 25.3182 2.74478 25.3001C3.16203 25.3027 3.53399 25.4225 3.90218 25.6585C3.9802 25.7011 4.01218 25.6913 4.06543 25.6189C4.07305 25.616 4.08669 25.5944 4.15978 25.4884H4.1602C4.22458 25.4026 4.24584 25.3608 4.24609 25.3608C4.29071 25.2757 4.28837 25.241 4.20566 25.1907C4.12914 25.1268 3.91147 25.0207 3.78882 24.9677C3.43821 24.8293 3.07697 24.7656 2.72226 24.7656C1.90768 24.7867 1.27042 25.3183 1.22797 26.012C1.20587 26.5089 1.46079 26.9122 1.99249 27.2099C2.14142 27.2949 2.68375 27.5011 2.93875 27.5718C3.66149 27.7843 4.04324 28.1718 3.96045 28.6346C3.89448 29.0591 3.45378 29.3356 2.84189 29.3553C2.39617 29.3356 1.94468 29.179 1.55682 28.8896C1.55506 28.8893 1.54543 28.8711 1.52501 28.8679C1.50048 28.847 1.50048 28.847 1.49344 28.8457C1.41827 28.7828 1.36686 28.784 1.32291 28.8679C1.31303 28.868 1.25543 28.9614 1.22722 29.0104Z" fill="#EE4D2D"/>
</g>
<defs>
<clipPath id="clip0_3025_2263">
<rect width="22.1016" height="31.4286" fill="white" transform="translate(0.9375 0.285156)"/>
</clipPath>
</defs>
</svg>
