<svg width="44" height="44" viewBox="0 0 44 44" fill="none" xmlns="http://www.w3.org/2000/svg">
<rect width="44" height="44" rx="22" fill="black"/>
<path d="M18.923 18.6915V17.4349C18.5023 17.3777 18.0749 17.3418 17.6388 17.3418C12.3842 17.3418 8.10938 21.6168 8.10938 26.8714C8.10938 30.0954 9.72019 32.9485 12.1776 34.6738C10.5915 32.9711 9.64968 30.6902 9.64968 28.1852C9.64968 23.006 13.7722 18.8118 18.923 18.6915Z" fill="#25F4EE"/>
<path d="M19.149 32.5688C21.4933 32.5688 23.4388 30.6725 23.5259 28.349L23.5329 7.63172L27.2915 7.59991C27.2126 7.17358 27.1693 6.73495 27.1693 6.28613H21.9919L21.9836 27.0352C21.8966 29.3587 19.9842 31.2236 17.6399 31.2236C16.9112 31.2236 16.2251 31.0414 15.6211 30.7235C16.4121 31.8198 17.6969 32.5688 19.149 32.5688Z" fill="#25F4EE"/>
<path d="M34.3717 14.6767V13.4887C32.9256 13.4887 31.5788 13.0588 30.4492 12.3223C31.4549 13.4775 32.8211 14.3447 34.3717 14.6767Z" fill="#25F4EE"/>
<path d="M30.4492 12.3223C29.3474 11.0568 28.6779 9.4054 28.6779 7.59961H27.291C27.6562 9.57226 28.827 11.2646 30.4492 12.3223Z" fill="#FE2C55"/>
<path d="M17.6392 22.5198C15.2395 22.5198 13.2871 24.4722 13.2871 26.8721C13.2871 28.543 14.2351 29.9951 15.6204 30.7241C15.1042 30.0087 14.7962 29.1335 14.7962 28.1858C14.7962 25.786 16.7487 23.8335 19.1483 23.8335C19.5963 23.8335 20.026 23.9075 20.4325 24.0348V18.7493C20.0119 18.6921 19.5845 18.6562 19.1483 18.6562C19.0728 18.6562 18.9984 18.6602 18.9234 18.6619V22.721C18.5169 22.5937 18.0871 22.5198 17.6392 22.5198Z" fill="#FE2C55"/>
<path d="M34.3714 14.6426V18.6665C31.6868 18.6665 29.199 17.8076 27.1684 16.3501V26.8716C27.1684 32.1263 22.8936 36.4011 17.6389 36.4011C15.6083 36.4011 13.7256 35.7606 12.1777 34.674C13.9187 36.5429 16.3985 37.7148 19.1481 37.7148C24.4027 37.7148 28.6775 33.44 28.6775 28.1854V17.6639C30.7081 19.1214 33.1959 19.9803 35.8805 19.9803V14.8029C35.3629 14.8029 34.8584 14.7468 34.3714 14.6426Z" fill="#FE2C55"/>
<path d="M27.1689 26.8712V16.3497C29.1995 17.8072 31.6873 18.666 34.3718 18.666V14.6421C32.8213 14.3102 31.4551 13.4774 30.4493 12.3223C28.8272 11.2646 27.6564 9.57226 27.2911 7.59961H23.5006L23.4923 28.3487C23.4053 30.6722 21.4929 32.5371 19.1486 32.5371C17.6965 32.5371 16.4117 31.8195 15.6206 30.7232C14.2354 29.9943 13.2873 28.5422 13.2873 26.8712C13.2873 24.4714 15.2398 22.519 17.6394 22.519C18.0874 22.519 18.5171 22.5929 18.9236 22.7202V18.6611C13.7728 18.7814 9.61914 23.0058 9.61914 28.185C9.61914 30.69 10.5921 32.9709 12.1782 34.6735C13.7261 35.7602 15.6088 36.4007 17.6394 36.4007C22.894 36.4007 27.1689 32.1258 27.1689 26.8712Z" fill="white"/>
</svg>
